<?xml version="1.0" encoding="utf-8"?>
<!-- Generator: Adobe Illustrator 17.0.0, SVG Export Plug-In . SVG Version: 6.00 Build 0)  -->
<!DOCTYPE svg PUBLIC "-//W3C//DTD SVG 1.1//EN" "http://www.w3.org/Graphics/SVG/1.1/DTD/svg11.dtd">
<svg version="1.1" id="Layer_1" xmlns="http://www.w3.org/2000/svg" xmlns:xlink="http://www.w3.org/1999/xlink" x="0px" y="0px"
	 width="107px" height="119px" viewBox="-1.973 -0.5 107 119" enable-background="new -1.973 -0.5 107 119" xml:space="preserve">
<g>
	<path fill="#2CA849" d="M4.556,20.997C2.689,15.342,5.772,9.221,11.429,7.355s11.776,1.217,13.642,6.873l21.225,64.329
		c-1.978-0.522-4.082-0.618-6.182-0.234L19.566,16.045c-0.865-2.621-3.7-4.049-6.321-3.185c-2.621,0.865-4.049,3.7-3.184,6.321
		c0.502,1.52-0.324,3.159-1.844,3.661S5.057,22.517,4.556,20.997z M88.182,71.461L53.406,82.935
		c1.234,1.401,2.213,3.067,2.834,4.949c0.022,0.067,0.035,0.135,0.056,0.202l33.703-11.12c1.52-0.502,2.346-2.141,1.844-3.661
		C91.341,71.785,89.702,70.96,88.182,71.461z M53.487,88.793c1.97,5.972-1.273,12.41-7.245,14.38
		c-5.972,1.97-12.41-1.273-14.38-7.245s1.273-12.41,7.245-14.38S51.517,82.821,53.487,88.793z M48.081,90.577
		c-0.985-2.986-4.204-4.608-7.19-3.622c-2.986,0.985-4.608,4.204-3.623,7.19c0.985,2.986,4.204,4.608,7.19,3.623
		C47.444,96.782,49.066,93.563,48.081,90.577z M79.393,27.826L91.2,63.61c0.251,0.76-0.162,1.58-0.922,1.83l-37.16,12.261
		c-0.76,0.251-1.58-0.162-1.83-0.922L39.481,40.995c-0.251-0.76,0.162-1.58,0.922-1.83l37.16-12.261
		C78.323,26.653,79.142,27.066,79.393,27.826z M74.478,48.613l-12.653-6.962l-6.023,13.124l3.988,1.835l2.605-5.677l4.703,14.254
		l4.501-1.485L66.895,49.45l5.47,3.011L74.478,48.613z M63.437,27.264L55.888,4.387c-0.16-0.486-0.684-0.75-1.17-0.59l-6.472,2.135
		l-0.032,0.058l-0.054-0.03l-3.415,1.127l2.812,8.523l-3.852,1.271l-2.812-8.523l-3.416,1.127l-0.026,0.056l-0.06-0.028l-6.43,2.122
		c-0.486,0.16-0.75,0.684-0.59,1.17l7.548,22.878c0.16,0.486,0.684,0.75,1.17,0.59l23.758-7.839
		C63.333,28.274,63.597,27.75,63.437,27.264z"/>
</g>
</svg>
