<?xml version="1.0" encoding="utf-8"?>
<!-- Generator: Adobe Illustrator 17.0.0, SVG Export Plug-In . SVG Version: 6.00 Build 0)  -->
<!DOCTYPE svg PUBLIC "-//W3C//DTD SVG 1.1//EN" "http://www.w3.org/Graphics/SVG/1.1/DTD/svg11.dtd">
<svg version="1.1" id="Layer_1" xmlns="http://www.w3.org/2000/svg" xmlns:xlink="http://www.w3.org/1999/xlink" x="0px" y="0px"
	 width="100px" height="100px" viewBox="0 0 100 100" enable-background="new 0 0 100 100" xml:space="preserve">
<path fill="#2CA849" d="M46.731,30.869l-5.919,14.375c-0.201,0.487-0.656,0.822-1.181,0.868l-30.276,2.66
	c-0.743,0.065-1.307,0.697-1.287,1.442L8.683,73.98c0.017,0.654,0.481,1.21,1.12,1.344l35.642,7.497
	c0.871,0.183,1.757,0.274,2.643,0.272l0.001-7.048V31.137C48.089,29.176,47.478,29.055,46.731,30.869z M42.586,75.188l-13.38-2.155
	V66.02h13.38V75.188z M36.736,42.696l-35.68,3.605c-1.09,0.11-1.884-1.01-1.42-2.002l9.501-20.308
	c0.193-0.413,0.575-0.708,1.023-0.79L49.364,16L37.884,41.864C37.678,42.327,37.24,42.645,36.736,42.696z M89.645,48.772
	l-30.276-2.66c-0.525-0.046-0.981-0.381-1.181-0.868l-5.919-14.375c-0.747-1.814-1.358-1.693-1.358,0.269v44.908l0.001,7.048
	c0.886,0.002,1.771-0.089,2.643-0.272l35.642-7.497c0.64-0.135,1.103-0.691,1.12-1.344l0.616-23.765
	C90.952,49.469,90.388,48.838,89.645,48.772z M77.186,61.466l-1.672,0.046L75.48,72.036c-0.002,0.464-0.472,0.907-1.058,0.991
	l-2.741,0.394c-0.626,0.09-1.138-0.231-1.137-0.717L70.57,61.65l-1.913,0.053c-0.93,0.026-1.518-0.72-1.045-1.337l4.549-5.927
	c0.431-0.562,1.489-0.51,1.904,0.082l3.993,5.69C78.436,60.75,77.957,61.445,77.186,61.466z M97.945,46.301l-35.68-3.605
	c-0.504-0.051-0.942-0.368-1.148-0.831L49.636,16l39.205,7.201c0.449,0.082,0.83,0.377,1.023,0.79l9.501,20.308
	C99.829,45.291,99.035,46.411,97.945,46.301z"/>
</svg>
