<?xml version="1.0" encoding="utf-8"?>
<!-- Generator: Adobe Illustrator 17.0.0, SVG Export Plug-In . SVG Version: 6.00 Build 0)  -->
<!DOCTYPE svg PUBLIC "-//W3C//DTD SVG 1.1//EN" "http://www.w3.org/Graphics/SVG/1.1/DTD/svg11.dtd">
<svg version="1.1" id="Capa_1" xmlns="http://www.w3.org/2000/svg" xmlns:xlink="http://www.w3.org/1999/xlink" x="0px" y="0px"
	 width="444.927px" height="298.521px" viewBox="0 0 444.927 298.521" enable-background="new 0 0 444.927 298.521"
	 xml:space="preserve">
<path fill="#FFFFFF" d="M210.141,66.157l-26.335,63.959c-0.894,2.167-2.919,3.657-5.255,3.862L43.844,145.812
	c-3.306,0.289-5.815,3.101-5.726,6.416l2.736,105.742c0.076,2.91,2.14,5.384,4.983,5.98l158.582,33.356
	c3.875,0.814,7.817,1.219,11.76,1.21l0.004-31.359V67.349C216.183,58.624,213.465,58.086,210.141,66.157z M191.699,263.345
	l-59.532-9.588v-31.203h59.532V263.345z M165.67,118.779L6.919,134.818c-4.85,0.489-8.382-4.494-6.318-8.907l42.273-90.356
	c0.859-1.838,2.558-3.15,4.552-3.515L221.856,0l-51.078,115.077C169.862,117.137,167.913,118.552,165.67,118.779z M401.078,145.812
	l-134.707-11.835c-2.336-0.205-4.365-1.695-5.255-3.862l-26.335-63.959c-3.324-8.071-6.042-7.533-6.042,1.197v199.809l0.004,31.359
	c3.942,0.009,7.88-0.396,11.76-1.21l158.582-33.356c2.848-0.601,4.908-3.074,4.983-5.98l2.741-105.738
	C406.894,148.914,404.384,146.106,401.078,145.812z M345.645,202.292l-7.439,0.205l-0.151,46.824
	c-0.009,2.064-2.1,4.036-4.707,4.409l-12.196,1.753c-2.785,0.4-5.063-1.028-5.059-3.19l0.116-49.183l-8.512,0.236
	c-4.138,0.116-6.754-3.204-4.65-5.949l20.24-26.371c1.918-2.501,6.625-2.269,8.471,0.365l17.766,25.317
	C351.206,199.106,349.075,202.198,345.645,202.292z M438.008,134.818l-158.751-16.04c-2.242-0.227-4.191-1.637-5.108-3.697
	L223.066,0l174.435,32.039c1.998,0.365,3.693,1.677,4.552,3.515l42.273,90.356C446.39,130.324,442.857,135.308,438.008,134.818z"/>
</svg>
