<?xml version="1.0" encoding="utf-8"?>
<!-- Generator: Adobe Illustrator 17.0.0, SVG Export Plug-In . SVG Version: 6.00 Build 0)  -->
<!DOCTYPE svg PUBLIC "-//W3C//DTD SVG 1.1//EN" "http://www.w3.org/Graphics/SVG/1.1/DTD/svg11.dtd">
<svg version="1.1" id="Capa_1" xmlns="http://www.w3.org/2000/svg" xmlns:xlink="http://www.w3.org/1999/xlink" x="0px" y="0px"
	 width="209.324px" height="237.922px" viewBox="0 0 209.324 237.922" enable-background="new 0 0 209.324 237.922"
	 xml:space="preserve">
<path fill="#008080" d="M1.297,41.034C-3.145,27.58,4.19,13.016,17.65,8.577s28.018,2.896,32.458,16.353l50.499,153.054
	c-4.706-1.242-9.712-1.47-14.708-0.557L37.01,29.252c-2.058-6.236-8.803-9.634-15.039-7.578c-6.236,2.058-9.634,8.803-7.576,15.039
	c1.194,3.616-0.771,7.516-4.387,8.71S2.489,44.651,1.297,41.034z M200.264,161.1L117.523,188.4
	c2.936,3.333,5.265,7.297,6.743,11.775c0.052,0.159,0.083,0.321,0.133,0.481l80.188-26.457c3.616-1.194,5.582-5.094,4.387-8.71
	C207.78,161.871,203.881,159.908,200.264,161.1z M117.716,202.338c4.687,14.209-3.029,29.526-17.238,34.214
	c-14.209,4.687-29.526-3.029-34.214-17.238c-4.687-14.209,3.029-29.526,17.238-34.214S113.029,188.129,117.716,202.338z
	 M104.854,206.582c-2.344-7.104-10.002-10.964-17.107-8.618c-7.104,2.344-10.964,10.002-8.62,17.107
	c2.344,7.104,10.002,10.964,17.107,8.62C103.338,221.345,107.198,213.687,104.854,206.582z M179.353,57.282l28.092,85.139
	c0.597,1.808-0.385,3.759-2.194,4.354l-88.413,29.172c-1.808,0.597-3.759-0.385-4.354-2.194L84.392,88.614
	c-0.597-1.808,0.385-3.759,2.194-4.354l88.413-29.172C176.807,54.491,178.756,55.474,179.353,57.282z M167.659,106.739
	l-30.105-16.564l-14.33,31.225l9.488,4.366l6.198-13.507l11.19,33.914l10.709-3.533l-11.192-33.909l13.014,7.164L167.659,106.739z
	 M141.39,55.945l-17.961-54.43c-0.381-1.156-1.627-1.784-2.784-1.404l-15.398,5.08l-0.076,0.138l-0.128-0.071l-8.125,2.681
	l6.69,20.278l-9.165,3.024l-6.69-20.278l-8.128,2.681l-0.062,0.133l-0.143-0.067L64.121,18.76c-1.156,0.381-1.784,1.627-1.404,2.784
	l17.959,54.432c0.381,1.156,1.627,1.784,2.784,1.404l56.526-18.651C141.142,58.348,141.77,57.101,141.39,55.945z"/>
</svg>
